<?xml version="1.0" standalone="no"?>
<!DOCTYPE svg PUBLIC "-//W3C//DTD SVG 20010904//EN"
 "http://www.w3.org/TR/2001/REC-SVG-20010904/DTD/svg10.dtd">
<svg version="1.0" xmlns="http://www.w3.org/2000/svg"
 width="512.000000pt" height="512.000000pt" viewBox="0 0 512.000000 512.000000"
 preserveAspectRatio="xMidYMid meet">

<g transform="translate(0.000000,512.000000) scale(0.100000,-0.100000)"
fill="#000000" stroke="none">
<path d="M2375 5054 c-16 -2 -73 -9 -125 -15 -603 -68 -1197 -389 -1597 -864
-249 -295 -447 -688 -527 -1048 -48 -213 -59 -317 -60 -557 -1 -289 25 -479
101 -730 237 -784 836 -1397 1618 -1655 263 -87 477 -120 780 -119 409 0 735
75 1091 249 760 372 1266 1080 1385 1935 18 124 18 496 0 620 -119 855 -627
1565 -1386 1936 -342 167 -660 242 -1050 249 -110 2 -213 1 -230 -1z m85 -750
l0 -546 -112 7 c-238 14 -658 73 -682 95 -12 11 53 181 129 335 164 337 371
558 592 634 32 11 61 20 66 21 4 0 7 -246 7 -546z m304 514 c60 -23 165 -91
228 -147 111 -99 251 -300 344 -496 68 -143 128 -305 118 -315 -24 -22 -444
-81 -681 -95 l-113 -7 0 546 0 546 28 -6 c15 -4 49 -15 76 -26z m-885 -120
c-140 -167 -278 -411 -370 -658 -23 -63 -46 -119 -49 -123 -14 -17 -309 92
-472 174 l-103 52 75 70 c262 246 560 426 885 533 39 13 76 23 83 24 6 0 -15
-33 -49 -72z m1461 25 c147 -53 365 -164 496 -251 111 -74 301 -230 368 -301
l29 -31 -134 -64 c-136 -66 -362 -152 -412 -158 -27 -3 -30 1 -78 127 -98 258
-227 485 -369 653 l-62 74 34 -7 c18 -4 76 -23 128 -42z m-2461 -802 c128 -65
299 -135 434 -176 48 -15 87 -30 87 -34 0 -4 -13 -65 -30 -137 -53 -232 -89
-504 -105 -791 l-7 -123 -499 0 -499 0 6 63 c28 325 110 613 250 889 74 143
221 368 241 368 4 0 58 -26 122 -59z m3536 -3 c249 -338 399 -745 439 -1195
l6 -63 -499 0 -499 0 -7 118 c-16 293 -51 554 -106 800 -17 74 -29 135 -27
136 2 1 66 24 143 51 156 53 304 116 410 174 39 21 76 39 83 40 6 0 32 -27 57
-61z m-2715 -273 c173 -36 406 -65 653 -81 l107 -6 0 -449 0 -449 -500 0 -500
0 0 28 c0 15 5 92 10 172 16 240 39 403 91 653 36 167 25 156 139 132z m1842
-60 c50 -193 99 -539 113 -802 l7 -123 -501 0 -501 0 0 449 0 449 113 7 c239
14 525 51 662 84 79 19 87 14 107 -64z m-2278 -1242 c17 -293 57 -592 111
-820 14 -58 25 -108 25 -113 0 -4 -39 -20 -87 -35 -135 -42 -306 -111 -436
-177 -100 -51 -120 -58 -133 -47 -29 24 -172 248 -228 359 -140 273 -222 562
-250 888 l-6 62 499 0 499 0 6 -117z m1196 -333 l0 -450 -27 0 c-141 0 -498
-40 -683 -76 -69 -13 -132 -24 -141 -24 -13 0 -23 31 -48 148 -54 255 -82 467
-96 735 l-7 117 501 0 501 0 0 -450z m1195 333 c-10 -181 -33 -393 -61 -552
-27 -162 -62 -312 -74 -325 -5 -5 -68 3 -147 18 -199 37 -543 76 -685 76 l-28
0 0 450 0 450 501 0 501 0 -7 -117z m1200 60 c-35 -353 -108 -615 -250 -893
-57 -110 -199 -335 -229 -359 -13 -11 -33 -4 -133 47 -123 63 -289 130 -433
177 -47 15 -86 29 -88 31 -2 1 10 62 27 136 55 246 90 507 106 801 l7 117 499
0 499 0 -5 -57z m-2395 -1588 c0 -300 -2 -545 -5 -545 -24 0 -139 48 -191 80
-130 79 -231 183 -346 355 -102 154 -274 533 -252 555 29 26 507 90 742 98
l52 2 0 -545z m560 519 c155 -16 421 -62 434 -75 11 -9 -75 -231 -136 -353
-87 -174 -225 -367 -326 -457 -91 -81 -214 -151 -304 -173 l-28 -6 0 546 0
546 113 -7 c61 -3 173 -13 247 -21z m-1509 -259 c98 -256 227 -485 368 -653
34 -39 57 -72 52 -72 -18 0 -160 49 -246 85 -266 110 -504 265 -725 472 l-75
70 103 52 c57 28 126 61 155 73 87 35 301 107 310 105 5 -1 31 -61 58 -132z
m2329 78 c69 -24 186 -74 260 -110 l135 -65 -80 -75 c-189 -176 -361 -296
-580 -403 -137 -67 -296 -131 -364 -145 l-34 -7 63 73 c161 191 294 439 413
772 8 22 20 19 187 -40z"/>
</g>
</svg>
